<svg width="375" height="375" viewBox="0 0 375 375" fill="none" xmlns="http://www.w3.org/2000/svg">
<path d="M145.277 15.4648C137.836 8.00391 127.934 3.875 117.395 3.875C106.855 3.875 96.9805 8.00391 89.5352 15.4648C74.1641 30.8711 74.1641 55.9414 89.5117 71.3711L200.664 182.984C203.219 185.551 203.219 189.703 200.664 192.266L89.5117 303.879C74.1641 319.285 74.1641 344.383 89.5352 359.789C96.9805 367.273 106.855 371.375 117.395 371.375C127.934 371.375 137.836 367.273 145.277 359.789L289.047 215.594C296.516 208.109 300.633 198.188 300.633 187.625C300.633 177.066 296.516 167.145 289.047 159.684L145.277 15.4648Z" fill="#875A42"/>
</svg>
