<svg width="375" height="375" viewBox="0 0 375 375" fill="none" xmlns="http://www.w3.org/2000/svg">
<path d="M229.723 359.535C237.164 366.996 247.066 371.125 257.605 371.125C268.145 371.125 278.02 366.996 285.465 359.535C300.836 344.129 300.836 319.059 285.488 303.629L174.336 192.016C171.781 189.449 171.781 185.297 174.336 182.734L285.488 71.1211C300.836 55.7148 300.836 30.6172 285.465 15.2109C278.02 7.72656 268.145 3.625 257.605 3.625C247.066 3.625 237.164 7.72656 229.723 15.2109L85.9531 159.406C78.4844 166.891 74.3672 176.812 74.3672 187.375C74.3672 197.934 78.4844 207.855 85.9531 215.316L229.723 359.535Z" fill="#875A42"/>
</svg>
